<svg xmlns="http://www.w3.org/2000/svg" xmlns:xlink="http://www.w3.org/1999/xlink" x="0px" y="0px" viewBox="0 0 100 100" style="enable-background:new 0 0 100 100;" xml:space="preserve"><g>	<g>		<g>			<path d="M71.579,51.969c-4.276,0-8.296-1.665-11.32-4.689    c-3.025-3.023-4.689-7.043-4.689-11.32s1.664-8.296,4.689-11.32c6.032-6.032,26.862-6.528,27.746-6.546l1.47-0.03l-0.03,1.47    c-0.018,0.884-0.513,21.714-6.547,27.746C79.875,50.304,75.854,51.969,71.579,51.969z M86.574,20.964    c-6.578,0.282-20.31,1.662-24.32,5.671c-2.491,2.491-3.862,5.802-3.862,9.325c0,3.522,1.371,6.834,3.862,9.324    c2.491,2.491,5.802,3.862,9.324,3.862s6.833-1.372,9.324-3.862C84.915,41.273,86.295,27.542,86.574,20.964z"></path>		</g>		<g>			<path d="M61.257,47.694c-0.361,0-0.722-0.138-0.998-0.413    c-0.551-0.551-0.551-1.444,0-1.995l19.528-19.528c0.551-0.551,1.444-0.551,1.995,0c0.551,0.551,0.551,1.444,0,1.995L62.254,47.28    C61.979,47.556,61.618,47.694,61.257,47.694z"></path>		</g>		<g>			<path d="M67.054,41.896c-0.642,0-1.222-0.441-1.374-1.093l-2.431-10.526    c-0.175-0.759,0.299-1.517,1.058-1.692c0.757-0.174,1.516,0.298,1.692,1.057l2.431,10.526c0.175,0.759-0.299,1.517-1.058,1.692    C67.266,41.884,67.158,41.896,67.054,41.896z"></path>		</g>		<g>			<path d="M72.706,36.243c-0.642,0-1.224-0.441-1.374-1.094l-1.734-7.512    c-0.175-0.759,0.299-1.516,1.058-1.692c0.761-0.172,1.517,0.298,1.692,1.058l1.733,7.512c0.175,0.759-0.299,1.516-1.058,1.692    C72.918,36.232,72.811,36.243,72.706,36.243z"></path>		</g>	</g>	<g>		<path d="M39.792,99H23.279c-3.62,0-6.566-2.945-6.566-6.566V76.851h29.644v15.583   C46.358,96.055,43.412,99,39.792,99z M19.535,79.673v12.761c0,2.064,1.68,3.744,3.744,3.744h16.513   c2.064,0,3.744-1.68,3.744-3.744V79.673H19.535z"></path>	</g>	<g>		<path d="M53.412,13.847H9.658V1h43.754V13.847z M12.48,11.025h38.11V3.822H12.48   V11.025z"></path>	</g>	<g>		<path d="M46.214,79.421H16.857L9.499,11.025h44.074L46.214,79.421z M19.392,76.599   h24.287l6.752-62.753H12.64L19.392,76.599z"></path>	</g>	<g>		<path d="M83.721,99H48.595c-0.78,0-1.411-0.632-1.411-1.411   c0-0.779,0.631-1.411,1.411-1.411h35.126c2.183,0,3.959-1.776,3.959-3.959V72.591c0-2.182-1.776-3.959-3.959-3.959   c-0.78,0-1.411-0.632-1.411-1.411c0-0.779,0.631-1.411,1.411-1.411c3.738,0,6.781,3.042,6.781,6.781v19.628   C90.501,95.958,87.459,99,83.721,99z"></path>	</g>	<g>		<path d="M86.57,68.632h-35.01c-0.78,0-1.411-0.632-1.411-1.411   c0-0.779,0.631-1.411,1.411-1.411h35.01c0.612,0,1.109-0.498,1.109-1.11v-2.953c0-2.032-1.654-3.685-3.684-3.685H52.584   c-0.78,0-1.411-0.632-1.411-1.411c0-0.779,0.631-1.411,1.411-1.411h31.411c3.588,0,6.506,2.919,6.506,6.507v2.953   C90.501,66.869,88.738,68.632,86.57,68.632z"></path>	</g></g></svg>