<svg xmlns="http://www.w3.org/2000/svg" xmlns:xlink="http://www.w3.org/1999/xlink" x="0px" y="0px" viewBox="0 0 100 100" style="enable-background:new 0 0 100 100;" xml:space="preserve"><g>	<g>		<path d="M73.695,99H26.306l-0.139-1.174c-0.656-5.543-0.973-8.232-1.072-9.6   C13.78,79.032,7.301,65.448,7.301,50.879v-1.331h85.398v1.331c0,14.539-6.453,28.103-17.724,37.301L73.695,99z M28.671,96.338   H71.33l1.13-9.553l0.428-0.341c10.551-8.416,16.745-20.833,17.131-34.235H9.981c0.386,13.405,6.586,25.822,17.144,34.234   l1.112,0.886l-0.553,0.606C27.849,89.367,28.302,93.208,28.671,96.338z"></path>	</g>	<g>		<g>			<g>				<path d="M54.358,52.211c-0.408,0-0.811-0.187-1.071-0.54     c-0.437-0.591-0.312-1.425,0.279-1.861c4.751-3.509,7.588-9.125,7.588-15.021c0-9.039-14.715-25.633-18.658-29.916     c-3.942,4.283-18.658,20.882-18.658,29.916c0,5.898,2.836,11.513,7.588,15.021c0.591,0.437,0.716,1.27,0.28,1.862     c-0.437,0.59-1.269,0.716-1.861,0.28c-5.428-4.008-8.668-10.423-8.668-17.162c0-11.443,19.528-31.921,20.359-32.788L42.495,1     l0.96,1.001c0.831,0.866,20.36,21.345,20.36,32.788c0,6.738-3.241,13.154-8.668,17.162     C54.91,52.126,54.632,52.211,54.358,52.211z"></path>			</g>			<g>				<path d="M42.496,47.583c-0.444,0-0.877-0.222-1.13-0.626     c-0.389-0.623-0.199-1.444,0.424-1.834l12.544-7.839c0.623-0.389,1.444-0.199,1.834,0.424c0.389,0.623,0.199,1.444-0.424,1.834     L43.2,47.381C42.981,47.518,42.737,47.583,42.496,47.583z"></path>			</g>			<g>				<path d="M42.496,38.02c-0.444,0-0.877-0.222-1.13-0.626     c-0.389-0.623-0.2-1.444,0.424-1.834l11.236-7.022c0.622-0.388,1.445-0.2,1.834,0.424c0.389,0.623,0.2,1.444-0.424,1.834     L43.2,37.818C42.981,37.955,42.737,38.02,42.496,38.02z"></path>			</g>			<g>				<path d="M42.496,28.456c-0.444,0-0.877-0.222-1.13-0.626     c-0.389-0.623-0.2-1.444,0.424-1.834l9.007-5.629c0.623-0.389,1.444-0.199,1.834,0.424c0.389,0.623,0.2,1.444-0.424,1.834     L43.2,28.254C42.981,28.391,42.737,28.456,42.496,28.456z"></path>			</g>		</g>		<g>			<path d="M42.495,52.21c-0.735,0-1.331-0.596-1.331-1.331V2.922    c0-0.735,0.596-1.331,1.331-1.331c0.735,0,1.331,0.596,1.331,1.331v47.957C43.826,51.614,43.23,52.21,42.495,52.21z"></path>		</g>	</g>	<g>		<g>			<g>				<path d="M79.964,52.092c-0.24,0-0.483-0.065-0.702-0.201     c-0.624-0.389-0.814-1.209-0.426-1.833c2.978-4.781,1.218-18.38,0.019-24.75c-2.548,0.715-8.251,2.43-13.341,4.753     c-0.666,0.305-1.458,0.01-1.763-0.658c-0.305-0.669-0.01-1.457,0.658-1.763c6.989-3.191,14.815-5.195,15.145-5.279l1.344-0.341     l0.286,1.357c0.18,0.853,4.35,20.963-0.09,28.089C80.842,51.869,80.408,52.092,79.964,52.092z"></path>			</g>		</g>		<g>			<path d="M62.916,52.21c-0.24,0-0.483-0.065-0.702-0.201    c-0.624-0.389-0.814-1.209-0.426-1.833l16.964-27.229c0.388-0.624,1.209-0.815,1.833-0.426c0.624,0.389,0.814,1.209,0.426,1.833    L64.047,51.583C63.795,51.988,63.361,52.21,62.916,52.21z"></path>		</g>	</g></g></svg>