<svg xmlns="http://www.w3.org/2000/svg" xmlns:xlink="http://www.w3.org/1999/xlink" x="0px" y="0px" viewBox="0 0 100 100" style="enable-background:new 0 0 100 100;" xml:space="preserve"><g>	<g>		<path d="M58.777,99c-14.823,0-26.883-12.059-26.883-26.883   c0-14.367,24.703-48.272,25.755-49.709l1.128-1.54l1.128,1.54c1.052,1.437,25.756,35.341,25.756,49.709   C85.661,86.941,73.601,99,58.777,99z M58.777,25.634c-4.903,6.906-24.086,34.685-24.086,46.483   c0,13.282,10.805,24.086,24.086,24.086c13.282,0,24.087-10.804,24.087-24.086C82.864,60.316,63.681,32.538,58.777,25.634z"></path>	</g>	<g>		<path d="M70.448,83.215c-4.877,0-8.844-4.792-8.844-10.683   s3.968-10.683,8.844-10.683c4.877,0,8.844,4.792,8.844,10.683S75.324,83.215,70.448,83.215z M70.448,64.646   c-3.335,0-6.048,3.538-6.048,7.886s2.713,7.886,6.048,7.886c3.335,0,6.047-3.538,6.047-7.886S73.782,64.646,70.448,64.646z"></path>	</g>	<g>		<path d="M25.863,50.942c-6.355,0-11.524-6.291-11.524-14.025   c0-7.733,5.169-14.025,11.524-14.025s11.524,6.291,11.524,14.025C37.387,44.651,32.218,50.942,25.863,50.942z M25.863,25.69   c-4.812,0-8.727,5.036-8.727,11.228c0,6.192,3.915,11.228,8.727,11.228s8.727-5.036,8.727-11.228   C34.591,30.726,30.676,25.69,25.863,25.69z"></path>	</g>	<g>		<path d="M43.419,21.336c-4.649,0-8.432-4.561-8.432-10.168   C34.987,5.561,38.769,1,43.419,1s8.431,4.561,8.431,10.168C51.85,16.775,48.068,21.336,43.419,21.336z M43.419,3.797   c-3.107,0-5.635,3.307-5.635,7.371c0,4.064,2.528,7.371,5.635,7.371c3.107,0,5.634-3.308,5.634-7.371   C49.053,7.104,46.525,3.797,43.419,3.797z"></path>	</g>	<g>		<path d="M25.863,45.099c-3.33,0-5.938-3.594-5.938-8.181   c0-0.773,0.626-1.398,1.398-1.398c0.772,0,1.398,0.625,1.398,1.398c0,3.174,1.656,5.385,3.142,5.385   c0.772,0,1.398,0.625,1.398,1.398C27.262,44.474,26.636,45.099,25.863,45.099z"></path>	</g></g></svg>