<svg xmlns="http://www.w3.org/2000/svg" xmlns:xlink="http://www.w3.org/1999/xlink" x="0px" y="0px" viewBox="0 0 57.2 80" style="enable-background:new 0 0 57.2 80;" xml:space="preserve"><g>	<path d="M46.7,53.1c-1-0.2-2,0.5-2.2,1.5C43.7,59.1,41,63,37,65.3c-0.9,0.5-1.2,1.7-0.7,2.5c0.3,0.6,1,0.9,1.6,0.9  c0.3,0,0.6-0.1,0.9-0.3c4.9-2.9,8.3-7.7,9.3-13.3C48.4,54.2,47.7,53.3,46.7,53.1z"></path>	<path d="M48.2,47.3c0-1-0.9-1.8-1.9-1.8c-1,0-1.8,0.9-1.8,1.9l0.1,1.8c0,1,0.9,1.8,1.9,1.8c0,0,0.1,0,0.1,0  c1,0,1.8-0.9,1.8-1.9L48.2,47.3z"></path>	<path d="M54.8,36.3c-0.5-1.5-2-2.3-3.5-1.8c-1.5,0.5-2.3,2-1.8,3.5c1.4,4.5,2.1,9.1,2.1,13.5c0,12.7-10.3,23-23,23  c-1.7,0-3.3-0.2-5-0.5c-1.5-0.3-3,0.6-3.3,2.1c-0.3,1.5,0.6,3,2.1,3.3c2,0.4,4.1,0.7,6.2,0.7c15.8,0,28.6-12.8,28.6-28.6  C57.2,46.4,56.4,41.3,54.8,36.3z"></path>	<path d="M5.6,51.4c0-21.7,17.4-39.6,23-44.9c1.4,1.3,3.4,3.3,5.8,5.9c1,1.2,2.8,1.3,3.9,0.2c1.2-1,1.3-2.8,0.2-3.9  c-4.5-5.1-8-8-8.2-8.1c-1-0.8-2.5-0.8-3.5,0C25.7,1.5,0,22.9,0,51.4c0,8,3.4,15.8,9.4,21.2c0.5,0.5,1.2,0.7,1.9,0.7  c0.8,0,1.5-0.3,2.1-0.9c1-1.1,1-2.9-0.2-3.9C8.3,64.1,5.6,57.9,5.6,51.4z"></path>	<path d="M23,62.4l0.2-0.6c0,0,0,0,0.1,0c5.4,0,10.8-4.6,17.7-14.8c2-3,3.9-5.8,5.6-8.3c0.2-0.3,0.2-0.6,0.1-0.9  c-0.1-0.3-0.4-0.5-0.7-0.5c-0.7-0.1-1.7-0.2-2.6-0.2c0.8-0.4,1.6-0.8,2.5-1.2c4.4-2.2,7.7-5.9,9.3-10.3c4-11.3-5-20-5.4-20.4  C49.5,5,49.2,4.9,49,4.9c-0.3,0-0.5,0.2-0.7,0.4c-3.6,4.8-8.4,8.1-13.1,11.2c-4,2.7-8.2,5.5-11.4,9.2c-2.5,2.9-3.8,6.7-3.5,10.7  c0,0.3,0,0.6,0.1,0.9c-0.4-0.9-0.9-1.7-1.4-2.4c-0.2-0.3-0.5-0.4-0.8-0.4c-0.3,0-0.6,0.2-0.8,0.5c-3.7,6.1-4.9,13.3-3.3,19.2  c0.8,3,2.2,5.2,4,6.4L18,60.8c-0.8,2.5-1.5,5-2,7.5c-0.6,2.7-0.8,4.6-0.9,7.2c-0.1,2.1,0.8,2.5,1.3,2.6c0,0,0.1,0,0.1,0  c0.5,0,1.2-0.2,1.7-1.6l0.4-1.1c0.6-1.8,1.2-3.6,2-6C21.3,67,22.1,64.7,23,62.4z M21.7,53.7c3.7-11.6,10.2-18.7,15.8-25  c3.2-3.5,6.2-6.8,8.1-10.4c0.4-0.7,1.2-0.9,1.9-0.6c0.7,0.4,0.9,1.2,0.6,1.9c-2.1,3.8-5.2,7.3-8.5,10.9c-5.5,6.1-11.7,13-15.3,23.9  c-0.2,0.6-0.7,1-1.3,1c-0.1,0-0.3,0-0.4-0.1C21.9,55.2,21.5,54.4,21.7,53.7z"></path></g></svg>