<svg xmlns="http://www.w3.org/2000/svg" xmlns:xlink="http://www.w3.org/1999/xlink" x="0px" y="0px" viewBox="0 0 100 100" style="enable-background:new 0 0 100 100;" xml:space="preserve"><g>	<path d="M50.001,1C29.712,1,13.264,17.448,13.264,37.737c0,20.286,16.448,36.735,36.737,36.735s36.735-16.448,36.735-36.735  C86.736,17.448,70.29,1,50.001,1z M50.001,58.387c-11.406,0-20.65-9.247-20.65-20.65c0-11.406,9.244-20.652,20.65-20.652  c11.406,0,20.65,9.247,20.65,20.652C70.651,49.14,61.407,58.387,50.001,58.387z"></path>	<path d="M50,78.569c-5.641,0-11.065-0.941-16.117-2.675L50,99l16.117-23.106C61.066,77.628,55.641,78.569,50,78.569z"></path></g></svg>