<svg xmlns="http://www.w3.org/2000/svg" xmlns:xlink="http://www.w3.org/1999/xlink" x="0px" y="0px" viewBox="0 0 100 100" style="enable-background:new 0 0 100 100;" xml:space="preserve"><g>	<path d="M38.346,50.53c-8.841-8.142-26.711-24.713-28.558-26.427C9.287,25.048,9,26.123,9,27.262v45.476  c0,1.141,0.288,2.217,0.791,3.163L38.346,50.53z"></path>	<path d="M44.946,51.972c3.617,3.267,6.308,3.273,9.925,0.029c3.287-2.949,27.653-26.058,32.559-30.711  c-0.96-0.522-2.058-0.818-3.221-0.818H15.791c-1.37,0-2.648,0.414-3.717,1.119C14.193,23.557,40.688,48.128,44.946,51.972"></path>	<path d="M89.919,23.608c0.68,1.057,1.081,2.31,1.081,3.654v45.476c0,0,0,2.364-1.544,4.17l-28.019-26.36  C69.453,43.057,86.207,27.134,89.919,23.608"></path>	<path d="M58.947,52.866c-0.809,0.75-1.436,1.327-1.808,1.661c-2.429,2.18-4.823,3.269-7.217,3.269  c-2.406,0-4.811-1.101-7.251-3.304c-0.411-0.372-1.031-0.937-1.812-1.653L12.077,78.411c1.069,0.704,2.345,1.117,3.714,1.117H84.21  c0.899,0,1.757-0.181,2.543-0.502L58.947,52.866z"></path></g></svg>