<svg xmlns="http://www.w3.org/2000/svg" xmlns:xlink="http://www.w3.org/1999/xlink" x="0px" y="0px" viewBox="0 0 65 32" style="enable-background:new 0 0 65 32;" xml:space="preserve"><style type="text/css">	.skril_0{fill:#862165;}</style><path class="skril_0" d="M47.9,8.9l4.3-0.8v16.6h-4.3V8.9z M54.2,8.9v15.9h4.3V8.1L54.2,8.9z M41.7,24.7H46V12.5h-4.3V24.7z M13.1,14.3 c-0.5,0-1.8-0.1-1.8-1.3c0-1.4,1.8-1.4,2.5-1.4c1.2,0,2.8,0.4,3.9,0.7c0,0,0.6,0.2,1.1,0.4l0,0v-0.1V9l-0.1,0 c-1.3-0.5-2.8-0.9-5.7-0.9c-4.9,0-6.6,2.8-6.6,5.3c0,1.4,0.6,4.7,6.2,5.1c0.5,0,1.7,0.1,1.7,1.3c0,1-1,1.5-2.8,1.5 c-1.9,0-3.7-0.5-4.9-0.9v3.9c1.7,0.4,3.6,0.7,5.8,0.7c4.8,0,6.9-2.7,6.9-5.4C19.5,16.5,17.1,14.5,13.1,14.3 M39.3,12.4 c-4,0.1-6,1.9-6,5.5v6.8h4.4v-5.6c0-2.1,0.3-3.1,2.8-3.1v-3.6C40,12.3,39.3,12.4,39.3,12.4 M27.5,12.5c-0.1,0.2-0.8,2.2-2.5,4.2V8.1 L20.6,9v15.7H25v-4.9c1.3,1.9,1.9,4.9,1.9,4.9h5.4c-0.5-2.2-2.8-6.3-2.8-6.3c2.1-2.6,3-5.4,3.1-5.9H27.5z M43.9,11.4 c1.2,0,2.1-1,2.1-2.1c0-1.2-1-2.1-2.1-2.1c-1.2,0-2.1,1-2.1,2.1C41.7,10.4,42.7,11.4,43.9,11.4"></path></svg>