<svg xmlns="http://www.w3.org/2000/svg" xmlns:xlink="http://www.w3.org/1999/xlink" x="0px" y="0px" viewBox="0 0 100 100" style="enable-background:new 0 0 100 100;" xml:space="preserve"><path d="M93.892,51.906c-1.158,0-2.075-1.033-1.88-2.227c0.153-0.937,1.033-1.586,1.982-1.586h1.696c1.786,0,3.211-1.54,3.023-3.316 c-1.292-12.196-7.058-23.053-15.628-30.905c-1.315-1.205-3.398-0.967-4.456,0.469l-1.067,1.45c-0.374,0.507-0.952,0.775-1.537,0.775 c-0.494,0-0.993-0.191-1.38-0.591c-0.657-0.679-0.655-1.765-0.095-2.525l1.018-1.382c1.058-1.437,0.667-3.496-0.874-4.397 C67.443,3.432,59.006,1,50,1S32.557,3.432,25.306,7.671c-1.54,0.901-1.932,2.96-0.874,4.397l1.018,1.382 c0.56,0.76,0.562,1.847-0.095,2.525c-0.387,0.4-0.886,0.591-1.38,0.591c-0.585,0-1.163-0.268-1.536-0.775l-1.068-1.45 c-1.058-1.436-3.141-1.674-4.456-0.469C8.345,21.724,2.58,32.581,1.287,44.777c-0.188,1.776,1.237,3.316,3.023,3.316h1.696 c0.95,0,1.83,0.649,1.982,1.586c0.194,1.194-0.722,2.227-1.88,2.227H4.31c-1.786,0-3.211,1.54-3.023,3.316 C2.58,67.419,8.345,78.275,16.915,86.127c1.315,1.205,3.398,0.967,4.456-0.469l1.007-1.368c0.563-0.764,1.608-1.088,2.453-0.655 c1.077,0.552,1.364,1.902,0.677,2.835l-1.076,1.461c-1.058,1.437-0.667,3.496,0.874,4.397C32.557,96.568,40.994,99,50,99 c9.006,0,17.443-2.432,24.694-6.672c1.54-0.901,1.932-2.96,0.874-4.396l-1.018-1.382c-0.562-0.763-0.562-1.854,0.101-2.531 c0.846-0.865,2.224-0.743,2.911,0.192l1.067,1.449c1.058,1.437,3.14,1.675,4.456,0.469c8.57-7.852,14.336-18.708,15.628-30.905 c0.188-1.776-1.237-3.316-3.023-3.316H93.892z M21.063,41.418c0-4.977,5.487-9.012,12.257-9.012s12.257,4.035,12.257,9.012 c0,4.977-5.488,9.012-12.257,9.012S21.063,46.395,21.063,41.418 M50,75.103c-8.91,0-16.133-3.439-16.133-7.682 c0-4.243,7.223-7.683,16.133-7.683c8.91,0,16.132,3.439,16.132,7.683C66.132,71.663,58.91,75.103,50,75.103 M66.68,50.43 c-6.77,0-12.257-4.035-12.257-9.012c0-4.977,5.488-9.012,12.257-9.012c6.769,0,12.257,4.035,12.257,9.012 C78.937,46.395,73.449,50.43,66.68,50.43"></path></svg>