<svg xmlns="http://www.w3.org/2000/svg" xmlns:xlink="http://www.w3.org/1999/xlink" id="Layer_1" x="0px" y="0px" viewBox="0 0 65 32" style="enable-background:new 0 0 65 32;" xml:space="preserve"><style type="text/css">	.visa-card{fill:#1A1F71;}</style><path class="visa-card" d="M32.3,8.5l-3.2,15h-3.9l3.2-15H32.3z M48.5,18.2l2-5.6l1.2,5.6H48.5z M52.9,23.5h3.6l-3.1-15H50 c-0.7,0-1.4,0.4-1.6,1.1l-5.8,13.9h4.1l0.8-2.2h5C52.4,21.3,52.9,23.5,52.9,23.5 M42.8,18.6c0-3.9-5.5-4.2-5.4-5.9 c0-0.5,0.5-1.1,1.6-1.3c0.6-0.1,2.1-0.1,3.8,0.7l0.7-3.2c-0.9-0.3-2.1-0.7-3.6-0.7c-3.8,0-6.5,2-6.5,4.9c0,2.2,1.9,3.4,3.4,4.1 c1.5,0.7,2,1.2,2,1.9c0,1-1.2,1.4-2.3,1.5c-1.9,0-3.1-0.5-4-0.9l-0.7,3.3c0.9,0.4,2.6,0.8,4.3,0.8C40.1,23.7,42.8,21.7,42.8,18.6  M26.7,8.5l-6.3,15h-4.1l-3.1-11.9c-0.2-0.7-0.3-1-0.9-1.3c-0.9-0.5-2.5-1-3.8-1.3l0.1-0.4h6.6c0.8,0,1.6,0.6,1.8,1.5l1.6,8.7 l4-10.2H26.7z"></path></svg>