<svg xmlns="http://www.w3.org/2000/svg" xmlns:xlink="http://www.w3.org/1999/xlink" x="0px" y="0px" viewBox="0 0 100 100" style="enable-background:new 0 0 100 100;" xml:space="preserve"><style type="text/css">	.imp4{fill:none;stroke:currentcolor;stroke-width:4;stroke-linecap:round;stroke-linejoin:round;}	.imp5{fill:none;stroke:currentcolor;stroke-width:4;stroke-linecap:round;stroke-miterlimit:10;}</style><g>	<g>		<circle class="imp4" cx="29.6" cy="78.6" r="10.2"></circle>		<circle class="imp4" cx="74.5" cy="78.6" r="10.2"></circle>		<path class="imp4" d="M84.7,52h-8.2l-2-10.2"></path>		<line class="imp4" x1="64.3" y1="78.6" x2="39.8" y2="78.6"></line>		<path class="imp4" d="M72.5,33.7h3.8c2.7,0,5.2,1.3,6.8,3.4l12.5,17.8c0.9,1.3,1.4,2.8,1.4,4.3v13.5   c-0.1,3.3-2.8,5.9-6.1,5.8h-6.1"></path>		<path class="imp4" d="M7.1,68.4v6.1c0,2.3,1.8,4.1,4.1,4.1h8.2"></path>		<line class="imp4" x1="68.4" y1="60.2" x2="9.2" y2="60.2"></line>		<path class="imp4" d="M13.3,11.2h47c2.3,0,4.1,1.8,4.1,4.1V52"></path>		<line class="imp5" x1="29.6" y1="23.5" x2="7.1" y2="23.5"></line>		<line class="imp5" x1="48" y1="35.7" x2="23.5" y2="35.7"></line>		<line class="imp5" x1="35.7" y1="48" x2="3" y2="48"></line>		<line class="imp5" x1="15.3" y1="35.7" x2="11.2" y2="35.7"></line>	</g></g></svg>