<svg xmlns="http://www.w3.org/2000/svg" xmlns:xlink="http://www.w3.org/1999/xlink" x="0px" y="0px" viewBox="0 0 100 100" style="enable-background:new 0 0 100 100;" xml:space="preserve"><style type="text/css">	.imp3{fill:none;stroke:currentcolor;stroke-width:4;stroke-linecap:round;stroke-linejoin:round;}</style><g transform="translate(-1061.625 -987.625)">	<path class="imp3" d="M1121.7,1019.5h36.2v52.3c0,6.7-5.4,12.1-12.1,12.1l0,0h-68.4c-6.7,0-12.1-5.4-12.1-12.1l0,0  v-52.3h36.2"></path>	<path class="imp3" d="M1101.6,1019.5h-36.2l10-23.3c1.3-3,4.2-4.9,7.4-4.9h57.8c3.2,0,6.1,1.9,7.4,4.9l10,23.3  H1101.6z"></path>	<path class="imp3" d="M1121.7,1047.7h-20.1v-28.2l4-28.2h12.1l4,28.2V1047.7z"></path>	<line class="imp3" x1="1129.7" y1="1071.8" x2="1145.8" y2="1071.8"></line>	<line class="imp3" x1="1137.8" y1="1063.8" x2="1141.8" y2="1063.8"></line></g></svg>