<svg xmlns="http://www.w3.org/2000/svg" xmlns:xlink="http://www.w3.org/1999/xlink" x="0px" y="0px" viewBox="0 0 100 100" style="enable-background:new 0 0 100 100;" xml:space="preserve">	<g>		<path d="M70,97.5H30C14.8,97.5,2.5,85.2,2.5,70V30C2.5,14.8,14.8,2.5,30,2.5h40c15.2,0,27.4,12.3,27.5,27.5v40  C97.5,85.2,85.2,97.5,70,97.5 M30,12.1c-9.9,0-17.9,8-17.9,17.9v40c0,9.9,8,17.9,17.9,17.9h40c9.9,0,17.9-8,17.9-17.9V30  c0-9.9-8-17.9-17.9-17.9H30z"></path>		<path d="M50,74c-13.3,0-24-10.8-24-24s10.8-24,24-24s24,10.8,24,24l0,0C74,63.3,63.3,74,50,74 M50,33.9  c-8.9,0-16.1,7.2-16.1,16.1S41.1,66.1,50,66.1S66.1,58.9,66.1,50l0,0C66,41.1,58.9,34,50,33.9"></path>		<path d="M80.1,24.8c0,3.1-2.5,5.6-5.6,5.6s-5.6-2.5-5.6-5.6s2.5-5.6,5.6-5.6l0,0C77.6,19.2,80.1,21.7,80.1,24.8"></path>	</g></svg>