<svg xmlns="http://www.w3.org/2000/svg" xmlns:xlink="http://www.w3.org/1999/xlink" x="0px" y="0px" viewBox="0 0 100 100" style="enable-background:new 0 0 100 100;" xml:space="preserve">	<path d="M48.8,34.5c-24.9-0.6-41.8-21-41.8-21S-1.7,29.8,13,40.3c-3,0.1-6-0.7-8.6-2.2c0,0-1.8,15.2,15.5,20 c0,0-1.1,1.3-8.4,0.7c2.5,8.1,10,13.7,18.5,13.8c0,0-9.2,9.9-29.2,8.8C21,93.9,46.8,93.1,66.2,79.5c11.4-7.9,25-29.8,23.1-49.7 c4-2.7,7.3-6.3,9.8-10.4c0,0-2.6,1.1-5.4,1.9c-1.8,0.5-3.7,0.9-5.6,1.1c0,0,7.5-5.2,8.4-11.1c-3.9,2.2-8.1,3.8-12.5,4.8h-0.1 C76.2,7.8,63.2,7.4,55,15.2c-5.2,4.9-7.5,12.2-5.9,19.3L48.8,34.5z"></path></svg>