<svg xmlns="http://www.w3.org/2000/svg" xmlns:xlink="http://www.w3.org/1999/xlink" x="0px" y="0px" viewBox="0 0 100 100" style="enable-background:new 0 0 100 100;" xml:space="preserve">    <path d="M50,42c-11.3,0-20.5-9.2-20.5-20.5S38.7,1,50,1c11.3,0,20.5,9.2,20.5,20.5S61.3,42,50,42z M50,7.8 c-7.5,0-13.7,6.1-13.7,13.7S42.5,35.2,50,35.2S63.7,29,63.7,21.5S57.5,7.8,50,7.8z"></path>    <path d="M72.8,99H27.2c-8.2,0-14.8-6.6-14.8-14.8v-5.7c0-14.4,11.7-26.2,26.2-26.2h22.8c0,0,0,0,0,0c7,0,13.6,2.7,18.5,7.7 c5,4.9,7.7,11.5,7.7,18.5v5.7C87.6,92.4,81,99,72.8,99z M38.6,59.1c-10.7,0-19.4,8.7-19.4,19.4v5.7c0,4.4,3.6,8,8,8h45.6 c4.4,0,8-3.6,8-8v-5.7c0-5.2-2-10.1-5.7-13.7c-3.7-3.7-8.5-5.7-13.7-5.7c0,0,0,0,0,0H38.6z"></path></svg>