<svg xmlns="http://www.w3.org/2000/svg" xmlns:xlink="http://www.w3.org/1999/xlink" x="0px" y="0px" viewBox="0 0 100 100" style="enable-background:new 0 0 100 100;" xml:space="preserve">    <path d="M49.8,93.8c-4.9,0-9.9-1.7-13.8-5.1C6.9,63-3.9,42.4,3,25.7C6.5,16.3,14.3,9.1,24,6.5c12-2.1,21.7,5.9,26,10.3 c4.3-4.4,13.8-12.1,25.7-10.1c9.9,2.4,17.7,9.4,21.3,18.7c6.8,16.7-4.1,37.4-33.4,63.3C59.7,92.1,54.7,93.8,49.8,93.8z M28.1,12.1 c-0.9,0-1.8,0.1-2.8,0.2c-7.5,2.1-13.9,7.9-16.7,15.5C2.8,42,13,60.4,39.9,84.2c5.6,4.9,14.1,4.9,19.7,0 c26.8-23.7,37.5-42.7,31.8-56.6c-2.9-7.5-9.2-13.1-17-15c-11.9-2-21.7,10.1-22.1,10.6c-1.1,1.4-3.6,1.4-4.7,0 C46.7,22,38.6,12.1,28.1,12.1z"></path></svg>