<svg xmlns="http://www.w3.org/2000/svg" xmlns:xlink="http://www.w3.org/1999/xlink" x="0px" y="0px" viewBox="0 0 500 500" style="enable-background:new 0 0 500 500;" xml:space="preserve">	<style> g{fill:currentcolor;} </style>	<g>		<path d="M319.5,89c-10,0.2-16.3,5.8-19.1,16.8l-0.1,0.3c-1.2,8.1,1.1,15.8,6.9,23l0.1,0.1c3.1,3.6,6,6.1,8.6,7.5l0,0  c-0.8,1.3-1.5,2.8-2.2,4.5c-0.6,1.3,0.1,2.8,1.4,3.4c0.3,0.1,0.7,0.2,1.1,0.2c1,0,1.9-0.6,2.3-1.6c0.9-2.2,1.8-3.9,2.6-5.2l0,0  c1.6-0.1,3-0.7,4.3-1.8c0.6-0.5,1.2-1.2,1.7-1.9c0.5-0.7,0.6-1.6,0.3-2.3s-0.9-1.4-1.7-1.6c-0.6-0.2-1.1-0.2-1.7-0.2  c-1.7,0-3.3,0.8-4.8,2.4l0,0c-1.9-0.8-4.5-3-7.7-6.7h0c-4.8-6-6.7-12.3-5.8-18.8l0,0c2.1-8.4,7-12.7,14.6-12.9  c1.4,0,2.9,0.1,4.5,0.3l0,0c11.4,3.4,21.8,24.2,31.4,62.3l0,0c5.5,20.9,8.1,47.2,7.9,79.1v0c-0.1,26-3,50.7-8.7,74.1l0,0  c-7.1,28.6-21.1,55.4-42,80.5l0,0c-21.2,24.8-36.7,39.7-46.6,44.7c-2.1,1.1-3.9,1.6-5.3,1.6c-1.6,0-2.7-0.5-3.5-1.8l0,0  c-0.5-3,0.8-7.3,4-12.8h0c14.3-23.1,26.9-41.7,37.8-55.8h0c22.1-27.3,39.4-44.7,51.7-52.2c1.2-0.7,1.6-2.3,0.9-3.5  c-0.5-0.8-1.4-1.3-2.3-1.2c-0.4,0-0.9,0.1-1.3,0.4c-12.9,7.8-30.6,25.6-53.1,53.4l0,0c-11,14.2-23.7,32.9-38.1,56.2l0,0.1  c-4,6.9-5.5,12.5-4.6,16.8l0.2,0.6c1.8,3.5,4.4,5.2,8,5.1c2.3-0.1,4.9-0.8,7.9-2.3c10.6-5.3,26.6-20.6,48.3-46l0,0  c21.4-25.7,35.7-53.2,43.1-82.5l0,0c5.8-23.8,8.8-48.9,8.9-75.3h0c0.2-32.3-2.5-59.1-8.1-80.4h0c-10.1-40.3-21.8-62.4-35.2-66.1  l-0.3-0.1C323.3,89.1,321.4,89,319.5,89z"></path>		<path d="M239.3,272.7c6.2-0.1,11.9,0.3,17.2,1.3l0,0c29.6,8.3,46.5,21.8,50.8,40.4l0,0c-0.1,0.2-0.1,0.3-0.2,0.5h0  c-0.3,0.6-0.8,0.8-1.6,0.9c-1,0-2.4-0.4-4.3-1.2h0l-80.9-38.8l0,0c4.8-0.8,9.7-1.7,14.6-2.8l0,0  C236.3,272.8,237.8,272.7,239.3,272.7z M185.2,64.1c-4.5,0.1-8.5,1.5-12,4.3c-0.5,0.4-0.9,0.7-1.3,1.1l0,0  c-5.5,4.5-9.7,13.1-12.6,26l0,0.3c-6.3,55.4-12.3,89.3-17.9,101.9l-0.1,0.4c-2.3,9.4-9.9,21.3-22.8,36l-0.2,0.2  c-2.2,3.1-2.3,6.6-0.5,10.4l0.2,0.3c2.9,4.5,7.7,7.9,14.4,10.2l0.3,0.1c30,6.3,52.9,12.3,68.9,18l0,0c-11.7,1.4-23.1,2.3-34.4,2.6  c-4.6,0.1-9.1,0.1-13.6,0l-0.2,0c-6.7,0.5-12.7,2.4-17.9,5.8h0c-8,5-13.1,15.3-15.2,31h0c-1.4,9.6-1.8,37.8-1.2,84.4h0l-2.5,43.2  c0,0.3,0,0.7,0.1,1c0.6,1.7,1.8,2.7,3.6,2.9l0,0c0.3,0,0.6,0,0.8,0c0.6,0,1.2-0.1,1.8-0.3l0,0l52-11.5l0.5-0.2  c47.1-20.4,75.3-30.8,84.6-31c1.1,0,1.9,0.1,2.5,0.3c0.4,0.2,0.7,0.2,1.1,0.2c1,0,1.9-0.6,2.3-1.6c0.6-1.3,0-2.8-1.3-3.4  c-0.8-0.4-2.1-0.5-3.6-0.5c-11.1,0.3-40.2,10.6-87.3,31.1l0,0l-51.7,11.4l0,0l0,0l2.4-41.7l0-0.2c-0.6-46.5-0.2-74.3,1.1-83.7l0,0  c1.9-14.1,6.1-23.2,12.8-27.3l0,0c4.5-2.9,9.6-4.5,15.3-4.9l0,0c4.5,0.1,9.1,0.1,13.7,0c14.4-0.3,29.1-1.6,44.1-3.8l0,0  c0.7,0.3,1.3,0.6,2,0.9h0l85.8,41.2l0.1,0c2.7,1.2,5,1.8,6.9,1.8c2.7-0.1,4.6-1.4,5.8-4l0,0c0.3-0.7,0.5-1.4,0.7-2.2  c0.1-0.3,0.1-0.7,0-1c-4.5-20.9-22.8-35.8-54.7-44.8l-0.2,0c-5.7-1.1-11.8-1.5-18.3-1.4c-1.6,0-3.2,0.1-4.8,0.2l-0.3,0  c-7.5,1.5-14.8,2.9-22.1,4l0,0c-16.1-6.8-42.1-13.9-78.2-21.5l0,0c-5.4-1.8-9.2-4.4-11.4-7.8l0,0c-0.9-1.9-0.9-3.5,0-5l0,0  c13.3-15.1,21.2-27.6,23.9-37.7l0,0c5.8-13.1,11.9-47.4,18.3-103.1l0,0c2.7-11.8,6.3-19.5,11-23.2l0.2-0.1c0.3-0.3,0.7-0.6,1-0.9  c2.7-2.1,5.9-3.3,9.5-3.4c18.3-0.4,48,25.4,89.1,77.7h0c9.2,12.2,17.2,25.8,23.9,40.7h0L354,319.6c0.4,1,1.4,1.6,2.4,1.6  c0.3,0,0.6-0.1,0.9-0.2c1.3-0.5,1.9-2.1,1.4-3.4l-55.1-132.2l0-0.1c-6.8-15.3-15-29.2-24.5-41.7l0,0C237,90,205.8,63.6,185.2,64.1z  "></path>	</g></svg>