<svg xmlns="http://www.w3.org/2000/svg" xmlns:xlink="http://www.w3.org/1999/xlink" x="0px" y="0px" viewBox="0 0 100 100" style="enable-background:new 0 0 100 100;" xml:space="preserve">    <path d="M75.6,99.5c-0.1,0-0.2,0-0.2,0H24.7c-3.5,0.1-7.1-1.3-9.7-3.9s-4.1-6-4.2-9.6c0-0.3,0-0.7,0-1.1l4.7-56.1 c0.4-4.4,4-7.8,8.5-7.8H76c4.4,0,8.1,3.4,8.5,7.8l4.7,56.1c0.2,3.7-1,7.3-3.4,10c-2.4,2.7-5.8,4.4-9.4,4.6 C76.1,99.5,75.9,99.5,75.6,99.5z M24,27.8c-0.9,0-1.6,0.7-1.7,1.6l-4.7,56.1c0,2.3,0.8,4.1,2.1,5.4c1.3,1.3,3,2,5,1.9h50.8 c0,0,0.1,0,0.1,0l0.4,0c1.9-0.1,3.6-1,4.8-2.3c1.2-1.4,1.8-3.2,1.7-5l-4.7-56c-0.1-0.9-0.8-1.6-1.7-1.6H24z"></path>    <path d="M65.4,43.1c-1.9,0-3.4-1.5-3.4-3.4V14.1c0-3.8-3.1-6.9-6.9-6.9H44.9c-3.8,0-6.9,3.1-6.9,6.9v25.6c0,1.9-1.5,3.4-3.4,3.4 s-3.4-1.5-3.4-3.4V14.1c0-7.5,6.1-13.6,13.6-13.6h10.2c7.5,0,13.6,6.1,13.6,13.6v25.6C68.8,41.6,67.3,43.1,65.4,43.1z"></path></svg>