<svg xmlns="http://www.w3.org/2000/svg" xmlns:xlink="http://www.w3.org/1999/xlink" x="0px" y="0px" viewBox="0 0 100 100" style="enable-background:new 0 0 100 100;" xml:space="preserve"><style type="text/css">	.imp0{fill:none;stroke:currentcolor;stroke-width:4;stroke-linecap:round;stroke-linejoin:round;}	.imp1{fill:none;stroke:currentcolor;stroke-width:4;stroke-miterlimit:10;}</style><g transform="translate(-950.626 -987.58)">	<path class="imp0" d="M1042.8,1059.6v12c0,6.6-5.4,12-12,12h-64.2c-6.6,0-12-5.4-12-12c0,0,0,0,0,0v-48.2  c0-6.6,5.4-12,12-12.1c0,0,0,0,0,0h64.2c6.6,0,12,5.4,12,12c0,0,0,0,0,0v12"></path>	<path class="imp0" d="M1042.8,1059.6h-20.1c-6.7,0.1-12.1-5.2-12.2-11.9c-0.1-6.7,5.2-12.1,11.9-12.2  c0.1,0,0.2,0,0.4,0h20.1c2.2,0,4,1.8,4,4v16.1C1046.8,1057.8,1045,1059.6,1042.8,1059.6z"></path>	<circle class="imp1" cx="1026.7" cy="1047.5" r="4"></circle>	<line class="imp0" x1="966.5" y1="1027.4" x2="994.6" y2="1027.4"></line>	<path class="imp0" d="M977.5,1010.3l3.2-12.7c1-4.1,5.1-6.7,9.3-5.9l30.9,6c4.4,0.8,7.2,5.1,6.3,9.4c0,0,0,0,0,0"></path></g></svg>