<svg xmlns="http://www.w3.org/2000/svg" xmlns:xlink="http://www.w3.org/1999/xlink" x="0px" y="0px" viewBox="0 0 100 100" style="enable-background:new 0 0 100 100;" xml:space="preserve"><style type="text/css">	.imp2{fill:none;stroke:currentcolor;stroke-width:4;stroke-linecap:round;stroke-linejoin:round;}</style><g transform="translate(-1246.625 -987.625)">	<path class="imp2" d="M1270.6,1059.7h-8c-6.6,0-12-5.4-12-12c0,0,0,0,0,0v-12c0-6.6,5.4-12,12-12h8V1059.7z"></path>	<path class="imp2" d="M1330.7,1059.7h-8v-36.1h8c6.6,0,12,5.4,12,12l0,0v12  C1342.7,1054.3,1337.3,1059.7,1330.7,1059.7C1330.7,1059.7,1330.7,1059.7,1330.7,1059.7z"></path>	<path class="imp2" d="M1259.6,1024c3.9-18.6,19-32.4,37-32.4s33.1,13.9,37,32.4"></path>	<path class="imp2" d="M1334.7,1063.7c0,16-16,20-40,20"></path>	<path class="imp2" d="M1302.6,1083.7h-16c0-4.4,3.6-8,8-8S1302.6,1079.3,1302.6,1083.7z"></path></g></svg>