<svg xmlns="http://www.w3.org/2000/svg" xmlns:xlink="http://www.w3.org/1999/xlink" x="0px" y="0px" viewBox="0 0 100 100" style="enable-background:new 0 0 100 100;" xml:space="preserve"><path d="M50,74c-13.2,0-24-10.7-24-24c0-13.2,10.7-24,24-24c13.2,0,24,10.7,24,24C74,63.2,63.2,74,50,74z M50,30.6 c-10.7,0-19.4,8.7-19.4,19.4c0,10.7,8.7,19.4,19.4,19.4c10.7,0,19.4-8.7,19.4-19.4C69.4,39.3,60.7,30.6,50,30.6z"></path><path d="M28.4,99C13.3,99,1,86.7,1,71.6V28.4C1,13.3,13.3,1,28.4,1h43.2C86.7,1,99,13.3,99,28.4v43.2C99,86.7,86.7,99,71.6,99H28.4z  M28.4,5.6C15.8,5.6,5.6,15.8,5.6,28.4v43.2c0,12.6,10.2,22.8,22.8,22.8h43.2c12.6,0,22.8-10.2,22.8-22.8V28.4 c0-12.6-10.2-22.8-22.8-22.8H28.4z"></path><path d="M77.5,31c-4.6,0-8.4-3.8-8.4-8.4s3.8-8.4,8.4-8.4c4.6,0,8.4,3.8,8.4,8.4S82.1,31,77.5,31z M77.5,18.9 c-2.1,0-3.8,1.7-3.8,3.8s1.7,3.8,3.8,3.8c2.1,0,3.8-1.7,3.8-3.8S79.6,18.9,77.5,18.9z"></path></svg>