<svg xmlns="http://www.w3.org/2000/svg" xmlns:xlink="http://www.w3.org/1999/xlink" x="0px" y="0px" viewBox="0 0 65 32" style="enable-background:new 0 0 65 32;" xml:space="preserve"><style type="text/css">	.apple_pay{fill:#1A1A1A;}</style><path class="apple_pay" d="M22.8,16.5c-0.7-0.9-0.9-1.9-0.7-3c0.2-0.8,0.6-1.4,1.2-2c0.2-0.2,0.3-0.3,0.5-0.5c0,0,0,0,0,0 c-0.1-0.1-0.1-0.2-0.2-0.2c-0.6-0.6-1.2-1.1-2.1-1.3c-0.7-0.1-1.3-0.1-2,0.1c-0.4,0.1-0.9,0.3-1.3,0.4c-0.3,0.1-0.6,0.1-0.9,0 c-0.2-0.1-0.4-0.1-0.7-0.2c-0.5-0.2-1.1-0.3-1.6-0.4c-1.1-0.1-2,0.2-2.8,1c-0.7,0.8-1.1,1.7-1.3,2.8c-0.2,1.2-0.1,2.4,0.2,3.5 c0.4,1.3,0.9,2.5,1.7,3.6c0.3,0.4,0.7,0.8,1.1,1.1c0.4,0.3,0.9,0.5,1.5,0.3c0.3-0.1,0.7-0.2,1-0.3c0.4-0.2,0.9-0.3,1.3-0.3 c0.4,0,0.7,0.1,1.1,0.2c0.3,0.1,0.7,0.2,1,0.3c0.7,0.2,1.3,0,1.9-0.4c0.2-0.1,0.3-0.3,0.5-0.4c0.8-0.8,1.3-1.8,1.8-2.8 c0.1-0.2,0.1-0.4,0.2-0.5c-0.1,0-0.1-0.1-0.2-0.1C23.5,17.3,23.1,16.9,22.8,16.5 M18.5,9.5c0.4-0.2,0.7-0.4,1-0.7 c0.7-0.7,1-1.5,1.1-2.5c0-0.2,0-0.4,0-0.5c-2.1,0.4-3.1,1.8-3.2,3.9c0,0,0,0,0,0C17.8,9.7,18.1,9.7,18.5,9.5 M35.6,9.2 C34.7,8.4,33.5,8,31.7,8c-1.4,0-2.5,0.1-3.4,0.3v13.5h1.8v-5.5c0.4,0.1,0.9,0.1,1.4,0.1c1.7,0,3.2-0.5,4.2-1.5 c0.7-0.7,1.1-1.7,1.1-2.9C36.7,10.8,36.3,9.8,35.6,9.2 M31.6,15c-0.6,0-1.1,0-1.5-0.1V9.6c0.3-0.1,0.9-0.1,1.7-0.1 c1.9,0,3.2,0.9,3.2,2.7C35,14,33.7,15,31.6,15 M52.3,12l-1.9,5.7c-0.2,0.7-0.4,1.5-0.6,2h0c-0.2-0.6-0.4-1.4-0.6-2L46.9,12H45l3.6,9 c0.1,0.2,0.1,0.4,0.1,0.5c0,0.1-0.1,0.2-0.1,0.4c-0.4,0.9-1,1.6-1.5,2c-0.5,0.4-1.1,0.7-1.6,0.9l0.4,1.5c0.4-0.1,1.3-0.4,2.2-1.2 c1.2-1.1,2.1-2.8,3.4-6.1l2.7-7H52.3z M44.5,15.8c0-2-0.7-4-3.7-4c-1.2,0-2.4,0.3-3.2,0.9l0.4,1.2c0.7-0.4,1.6-0.7,2.5-0.7 c2,0,2.2,1.5,2.2,2.3v0.2c-3.8,0-5.9,1.3-5.9,3.6c0,1.4,1,2.8,3,2.8c1.4,0,2.4-0.7,3-1.5H43l0.1,1.2h1.6c-0.1-0.7-0.2-1.5-0.2-2.3 V15.8z M42.8,18.5c0,0.2,0,0.4-0.1,0.6c-0.3,0.8-1.1,1.6-2.4,1.6c-0.9,0-1.7-0.5-1.7-1.7c0-1.9,2.2-2.2,4.1-2.2V18.5z"></path></svg>