<svg xmlns="http://www.w3.org/2000/svg" xmlns:xlink="http://www.w3.org/1999/xlink" x="0px" y="0px" viewBox="0 0 80 76.6" style="enable-background:new 0 0 80 76.6;" xml:space="preserve"><g>	<path d="M22.9,42.5c0.5-0.6,0.4-1.5-0.2-2c-5-4.1-9.3-9.6-12.8-16.4c-0.4-0.7-1.2-1-1.9-0.6c-0.7,0.4-1,1.2-0.6,1.9  c3.6,7.1,8.2,12.9,13.5,17.3c0.3,0.2,0.6,0.3,0.9,0.3C22.2,43.1,22.6,42.9,22.9,42.5z"></path>	<path d="M18,48c-0.8-0.2-1.6-0.5-2.3-0.8c-5.2-2.5-7.8-8.1-8.8-11.1c-1.7-4.9-2.4-10.6-2-16.4c1.9,0.7,3.8,1.3,5.6,1.8  c0.9,0.3,1.8,0.5,2.6,0.8c3.7,1.2,8,2.8,11.5,5.7c1.9,1.6,3.4,3.5,4.4,5.6c0.6,1.2,2,1.7,3.2,1.1c1.2-0.6,1.7-2,1.1-3.2  c-1.3-2.7-3.2-5.2-5.6-7.2c-4.1-3.4-8.9-5.2-13.1-6.6c-0.9-0.3-1.8-0.5-2.7-0.8C9,16,6.3,15.3,4,13.9c-0.7-0.4-1.5-0.4-2.3-0.1  c-0.7,0.4-1.2,1-1.3,1.8c-1,7.6-0.3,15.4,1.9,21.9C4.6,44,8.6,49,13.6,51.4c1.1,0.5,2.2,0.9,3.3,1.2c0.2,0,0.4,0.1,0.5,0.1  c1.1,0,2.1-0.7,2.3-1.8C20.1,49.5,19.3,48.2,18,48z"></path>	<path d="M41.8,10.9c-2.8,5.8-4.7,11.9-5.8,18.7c-0.1,0.8,0.4,1.5,1.2,1.6c0.1,0,0.2,0,0.2,0c0.7,0,1.3-0.5,1.4-1.2  c1-6.5,2.8-12.4,5.5-17.9c0.3-0.7,0-1.6-0.7-1.9C42.9,9.9,42.1,10.2,41.8,10.9z"></path>	<path d="M29,22.7c1.3,0.3,2.6-0.5,2.9-1.7c0.5-2.2,1.7-4.5,3.4-6.6c2.5-3.1,5.9-6,9.8-8.2c0.3,1.4,0.7,2.8,1.1,4.2  c0.2,0.7,0.4,1.4,0.6,2.1c0.8,3.1,1.6,6.7,1.1,10.3c-0.1,0.7-0.2,1.4-0.4,2.1c-0.4,1.3,0.3,2.6,1.6,3c0.2,0.1,0.5,0.1,0.7,0.1  c1,0,2-0.7,2.3-1.7c0.3-0.9,0.5-1.9,0.6-2.8c0.6-4.4-0.3-8.6-1.2-12.1c-0.2-0.8-0.4-1.5-0.6-2.3c-0.7-2.3-1.3-4.4-1.4-6.6  c0-0.8-0.5-1.5-1.1-1.9c-0.7-0.4-1.5-0.5-2.3-0.1c-5.8,2.7-10.9,6.6-14.4,11.1c-2.1,2.7-3.6,5.6-4.3,8.5C26.9,21,27.7,22.3,29,22.7  z"></path>	<path d="M79.9,30.8c-0.2-0.4-0.6-0.8-1-0.9c-11.4-2.3-23.2-2.2-33.2,0.5c-9.8,2.6-17.4,7.9-21.5,14.9  c-4.5,7.8-3.8,17.2,1.7,23.9c3.8,4.6,8.8,7.1,14.6,7.3c0.3,0,0.6,0,0.9,0c7,0,14.4-3.4,19.9-9.1c5.5-5.7,8.8-12.8,11.2-18.9  c0.5-1.4,1-2.7,1.6-4.1c1.6-4.3,3.2-8.7,5.7-12.3C80,31.7,80.1,31.2,79.9,30.8z M65.1,39.6C52.4,46,42,54,34.3,63.4  c-0.4,0.5-0.9,0.7-1.5,0.7c-0.4,0-0.9-0.1-1.2-0.4c-0.8-0.7-0.9-1.9-0.3-2.7c8.1-9.8,18.9-18.1,32.1-24.8c0.9-0.5,2.1-0.1,2.6,0.9  C66.4,38,66.1,39.1,65.1,39.6z"></path></g></svg>