<svg xmlns="http://www.w3.org/2000/svg" xmlns:xlink="http://www.w3.org/1999/xlink" x="0px" y="0px" viewBox="0 0 65 32" style="enable-background:new 0 0 65 32;" xml:space="preserve"><style type="text/css">	.master_0{fill:#FF5F00;}	.master_1{fill:#EB001B;}	.master_2{fill:#F79E1B;}	.master_3{fill:#FFFFFF;}</style><g>	<rect x="26.7" y="5.6" class="master_0" width="11.6" height="20.8"></rect>	<path class="master_1" d="M27.4,16c0-4.2,2-8,5-10.4c-2.2-1.8-5.1-2.8-8.2-2.8C17,2.8,11.1,8.7,11.1,16c0,7.3,5.9,13.2,13.2,13.2  c3.1,0,5.9-1.1,8.2-2.8C29.4,24,27.4,20.2,27.4,16"></path>	<path class="master_2" d="M53.9,16c0,7.3-5.9,13.2-13.2,13.2c-3.1,0-5.9-1.1-8.2-2.8c3.1-2.4,5-6.2,5-10.4c0-4.2-2-8-5-10.4  c2.2-1.8,5.1-2.8,8.2-2.8C48,2.8,53.9,8.7,53.9,16"></path>	<path class="master_3" d="M18.9,18.4v-2.2c0-0.8-0.5-1.4-1.4-1.4c-0.4,0-0.9,0.1-1.2,0.6c-0.3-0.4-0.6-0.6-1.2-0.6c-0.4,0-0.7,0.1-1,0.5  v-0.4h-0.8v3.5H14v-1.9c0-0.6,0.3-0.9,0.8-0.9c0.5,0,0.8,0.3,0.8,0.9v1.9h0.8v-1.9c0-0.6,0.4-0.9,0.8-0.9c0.5,0,0.8,0.3,0.8,0.9  v1.9H18.9z M30.3,14.9h-1.2v-1.1h-0.8v1.1h-0.7v0.7h0.7v1.6c0,0.8,0.3,1.3,1.2,1.3c0.3,0,0.7-0.1,1-0.3l-0.2-0.7  c-0.2,0.1-0.5,0.2-0.7,0.2c-0.4,0-0.5-0.2-0.5-0.6v-1.6h1.2V14.9z M36.9,14.8c-0.4,0-0.7,0.2-0.9,0.5v-0.4h-0.8v3.5h0.8v-2  c0-0.6,0.3-0.9,0.7-0.9c0.1,0,0.3,0,0.5,0.1l0.2-0.7C37.2,14.8,37,14.8,36.9,14.8 M27,15.2c-0.4-0.3-0.9-0.4-1.4-0.4  c-0.9,0-1.5,0.4-1.5,1.1c0,0.6,0.4,0.9,1.2,1l0.4,0c0.4,0.1,0.6,0.2,0.6,0.4c0,0.3-0.3,0.4-0.8,0.4c-0.5,0-0.9-0.2-1.2-0.4  l-0.4,0.6c0.4,0.3,1,0.4,1.5,0.4c1,0,1.6-0.5,1.6-1.1c0-0.6-0.5-1-1.2-1.1l-0.4,0c-0.3,0-0.6-0.1-0.6-0.3c0-0.3,0.3-0.4,0.7-0.4  c0.4,0,0.9,0.2,1.1,0.3L27,15.2z M47.5,14.8c-0.4,0-0.7,0.2-0.9,0.5v-0.4h-0.8v3.5h0.8v-2c0-0.6,0.3-0.9,0.7-0.9  c0.1,0,0.3,0,0.5,0.1l0.2-0.7C47.8,14.8,47.6,14.8,47.5,14.8 M37.6,16.7c0,1.1,0.7,1.8,1.9,1.8c0.5,0,0.9-0.1,1.2-0.4l-0.4-0.6  c-0.3,0.2-0.6,0.3-0.9,0.3c-0.6,0-1.1-0.4-1.1-1.1c0-0.7,0.4-1.1,1.1-1.1c0.3,0,0.6,0.1,0.9,0.3l0.4-0.6c-0.4-0.3-0.7-0.4-1.2-0.4  C38.4,14.8,37.6,15.6,37.6,16.7 M44.8,16.7v-1.8H44v0.4c-0.3-0.3-0.6-0.5-1.1-0.5c-1,0-1.8,0.8-1.8,1.8c0,1.1,0.8,1.8,1.8,1.8  c0.5,0,0.9-0.2,1.1-0.5v0.4h0.8V16.7z M41.9,16.7c0-0.6,0.4-1.1,1.1-1.1c0.6,0,1.1,0.5,1.1,1.1c0,0.6-0.4,1.1-1.1,1.1  C42.3,17.8,41.9,17.3,41.9,16.7 M32.7,14.8c-1,0-1.8,0.7-1.8,1.8c0,1.1,0.7,1.8,1.8,1.8c0.5,0,1-0.1,1.4-0.5l-0.4-0.6  c-0.3,0.2-0.7,0.4-1,0.4c-0.5,0-1-0.2-1.1-0.8h2.6v-0.3C34.4,15.6,33.7,14.8,32.7,14.8 M32.7,15.5c0.5,0,0.8,0.3,0.9,0.8h-1.8  C31.8,15.9,32.2,15.5,32.7,15.5 M51.9,16.7v-3.2h-0.8v1.8c-0.3-0.3-0.6-0.5-1.1-0.5c-1,0-1.8,0.8-1.8,1.8c0,1.1,0.8,1.8,1.8,1.8  c0.5,0,0.9-0.2,1.1-0.5v0.4h0.8V16.7z M49,16.7c0-0.6,0.4-1.1,1.1-1.1c0.6,0,1.1,0.5,1.1,1.1c0,0.6-0.4,1.1-1.1,1.1  C49.4,17.8,49,17.3,49,16.7 M23.2,16.7v-1.8h-0.8v0.4c-0.3-0.3-0.6-0.5-1.1-0.5c-1,0-1.8,0.8-1.8,1.8c0,1.1,0.8,1.8,1.8,1.8  c0.5,0,0.9-0.2,1.1-0.5v0.4h0.8V16.7z M20.4,16.7c0-0.6,0.4-1.1,1.1-1.1c0.6,0,1.1,0.5,1.1,1.1c0,0.6-0.4,1.1-1.1,1.1  C20.8,17.8,20.4,17.3,20.4,16.7"></path></g></svg>