<svg xmlns="http://www.w3.org/2000/svg" xmlns:xlink="http://www.w3.org/1999/xlink" x="0px" y="0px" viewBox="0 0 65 32" style="enable-background:new 0 0 65 32;" xml:space="preserve"><style type="text/css">	.paypal_0{fill:#253B80;}	.paypal_1{fill:#179BD7;}</style><g>	<path class="paypal_0" d="M11.7,12.6c-0.2,1.6-1.4,1.6-2.6,1.6H8.4l0.5-2.9c0-0.2,0.2-0.3,0.4-0.3h0.3c0.8,0,1.5,0,1.9,0.4  C11.7,11.7,11.7,12.1,11.7,12.6 M11.1,8.5H6.8C6.5,8.5,6.2,8.7,6.2,9L4.4,20.2c0,0.2,0.1,0.4,0.4,0.4h2.1c0.3,0,0.6-0.2,0.6-0.5  l0.5-3c0-0.3,0.3-0.5,0.6-0.5h1.4c2.9,0,4.5-1.4,5-4.2c0.2-1.2,0-2.2-0.6-2.8C13.7,8.9,12.6,8.5,11.1,8.5"></path>	<path class="paypal_0" d="M21.3,16.6c-0.2,1.2-1.2,2-2.4,2c-0.6,0-1.1-0.2-1.4-0.6c-0.3-0.4-0.4-0.9-0.3-1.5c0.2-1.2,1.2-2,2.3-2  c0.6,0,1.1,0.2,1.4,0.6C21.3,15.5,21.4,16.1,21.3,16.6 M24.2,12.6h-2.1c-0.2,0-0.3,0.1-0.4,0.3l-0.1,0.6l-0.1-0.2  c-0.5-0.7-1.5-0.9-2.5-0.9c-2.3,0-4.3,1.8-4.7,4.2c-0.2,1.2,0.1,2.4,0.8,3.2c0.6,0.8,1.6,1.1,2.6,1.1c1.9,0,2.9-1.2,2.9-1.2  l-0.1,0.6c0,0.2,0.1,0.4,0.4,0.4h1.9c0.3,0,0.6-0.2,0.6-0.5l1.1-7.2C24.6,12.8,24.4,12.6,24.2,12.6"></path>	<path class="paypal_0" d="M35.4,12.6h-2.1c-0.2,0-0.4,0.1-0.5,0.3l-2.9,4.3L28.6,13c-0.1-0.3-0.3-0.4-0.6-0.4H26c-0.3,0-0.4,0.2-0.3,0.5  l2.3,6.8l-2.2,3.1c-0.2,0.2,0,0.6,0.3,0.6h2.1c0.2,0,0.4-0.1,0.5-0.3l7-10.1C35.8,12.9,35.7,12.6,35.4,12.6"></path>	<path class="paypal_1" d="M42.8,12.6c-0.2,1.6-1.4,1.6-2.6,1.6h-0.7l0.5-2.9c0-0.2,0.2-0.3,0.4-0.3h0.3c0.8,0,1.5,0,1.9,0.4  C42.8,11.7,42.9,12.1,42.8,12.6 M42.3,8.5H38c-0.3,0-0.6,0.2-0.6,0.5l-1.8,11.2c0,0.2,0.1,0.4,0.4,0.4h2.2c0.2,0,0.4-0.2,0.4-0.4  l0.5-3.2c0-0.3,0.3-0.5,0.6-0.5h1.4c2.9,0,4.5-1.4,5-4.2c0.2-1.2,0-2.2-0.6-2.8C44.9,8.9,43.8,8.5,42.3,8.5"></path>	<path class="paypal_1" d="M52.5,16.6c-0.2,1.2-1.2,2-2.4,2c-0.6,0-1.1-0.2-1.4-0.6c-0.3-0.4-0.4-0.9-0.3-1.5c0.2-1.2,1.2-2,2.3-2  c0.6,0,1.1,0.2,1.4,0.6C52.4,15.5,52.6,16.1,52.5,16.6 M55.4,12.6h-2.1c-0.2,0-0.3,0.1-0.4,0.3l-0.1,0.6l-0.1-0.2  c-0.5-0.7-1.5-0.9-2.5-0.9c-2.3,0-4.3,1.8-4.7,4.2c-0.2,1.2,0.1,2.4,0.8,3.2c0.6,0.8,1.6,1.1,2.6,1.1c1.9,0,2.9-1.2,2.9-1.2  l-0.1,0.6c0,0.2,0.1,0.4,0.4,0.4H54c0.3,0,0.6-0.2,0.6-0.5l1.1-7.2C55.8,12.8,55.6,12.6,55.4,12.6"></path>	<path class="paypal_1" d="M57.9,8.8l-1.8,11.4c0,0.2,0.1,0.4,0.4,0.4h1.8c0.3,0,0.6-0.2,0.6-0.5l1.8-11.2c0-0.2-0.1-0.4-0.4-0.4h-2  C58,8.5,57.9,8.6,57.9,8.8"></path></g></svg>