<svg xmlns="http://www.w3.org/2000/svg" xmlns:xlink="http://www.w3.org/1999/xlink" x="0px" y="0px" viewBox="0 0 68 80" style="enable-background:new 0 0 68 80;" xml:space="preserve"><path d="M66.3,61.1L47.4,28.3c-1.4-2.3-2.1-5-2.1-7.7V8.6C47,8,48.2,6.4,48.2,4.5c0-2.5-2-4.5-4.5-4.5H24.3 c-2.5,0-4.5,2-4.5,4.5c0,1.9,1.2,3.5,2.9,4.2v11.9c0,2.7-0.7,5.4-2.1,7.7L1.7,61.1c-2.3,3.9-2.3,8.7,0,12.6C4,77.6,8.1,80,12.6,80 h42.8c4.6,0,8.6-2.4,10.9-6.3C68.6,69.8,68.6,65.1,66.3,61.1z M12.6,73.4c-3.1,0-4.6-2.1-5.2-3c-0.5-0.9-1.6-3.3,0-6l3.1-5.4 c0.4-0.7,1.3-0.9,2-0.5c0.7,0.4,0.9,1.3,0.5,2l-3.1,5.4c-0.8,1.3-0.3,2.5,0,3.1c0.3,0.6,1.1,1.6,2.7,1.6c0.8,0,1.4,0.6,1.4,1.4 C14,72.7,13.4,73.4,12.6,73.4z M25.5,71.6c-3.7,0-6.6-3-6.6-6.6c0-3.7,3-6.6,6.6-6.6c3.7,0,6.6,3,6.6,6.6 C32.1,68.6,29.1,71.6,25.5,71.6z M30.7,50.1c-2,0-3.7-1.7-3.7-3.7c0-2,1.7-3.7,3.7-3.7c2,0,3.7,1.7,3.7,3.7 C34.4,48.4,32.7,50.1,30.7,50.1z M27.5,35.3c-1.1-0.3-2.3-0.8-3.4-1.3c-0.6-0.3-1.3-0.5-1.9-0.8l1.7-3c1.7-2.9,2.6-6.3,2.6-9.6V7 c0-1.1-0.9-1.9-1.9-1.9h-0.4c-0.4,0-0.6-0.3-0.6-0.6c0-0.4,0.3-0.6,0.6-0.6h19.5c0.4,0,0.6,0.3,0.6,0.6c0,0.4-0.3,0.6-0.6,0.6h-0.4 h-3.9c-1.1,0-1.9,0.9-1.9,1.9c0,1.1,0.9,1.9,1.9,1.9h2v11.7c0,3.4,0.9,6.7,2.6,9.6l0.7,1.2c-3.2,0.3-5.5,1.5-7.6,2.5 C34.1,35.4,31.7,36.6,27.5,35.3z M43.1,61.4c-2.6,0-4.8-2.1-4.8-4.8c0-2.6,2.1-4.8,4.8-4.8c2.6,0,4.8,2.1,4.8,4.8 C47.9,59.3,45.7,61.4,43.1,61.4z M60.1,66.4c-0.2,0.1-0.5,0.2-0.7,0.2c-0.5,0-1-0.3-1.2-0.7l-5.7-9.8c-0.4-0.7-0.2-1.6,0.5-2 c0.7-0.4,1.6-0.2,2,0.5l5.7,9.8C61,65.1,60.7,66,60.1,66.4z"></path></svg>