<svg xmlns="http://www.w3.org/2000/svg" xmlns:xlink="http://www.w3.org/1999/xlink" x="0px" y="0px" viewBox="0 0 100 100" style="enable-background:new 0 0 100 100;" xml:space="preserve"><path d="M85.331,78.364L71.446,64.407l-0.639-0.58l-0.131-0.034c-0.753-0.556-1.686-0.98-2.782-1.265 c-2.047-0.533-4.043-0.314-5.935,0.649l-5.619,3.357l-0.151-0.074c-0.153-0.074-0.752-0.407-2.076-1.583 c-1.036-0.922-2.321-2.315-3.819-4.143c-1.493-1.82-3.152-4.319-4.962-7.483c-1.846-3.065-3.21-5.712-4.051-7.864 c-0.847-2.167-1.421-3.957-1.719-5.365c-0.245-1.069-0.382-2.013-0.411-2.82l4.559-2.678c1.412-0.827,2.51-2.017,3.261-3.531 c0.813-1.628,1.006-3.389,0.575-5.014L42.953,6.419L42.89,6.193c-0.339-1.049-0.851-2.007-1.519-2.845 c-0.847-1.065-1.959-1.784-3.308-2.134c-1.751-0.454-3.549-0.183-5.193,0.785l-14.144,8.304c-1.001,0.533-1.926,1.297-2.75,2.268 c-0.799,0.941-1.422,1.939-1.851,2.967l-0.121,0.354c-0.045,0.158-0.21,0.675-0.492,1.551c-0.388,1.216-0.672,2.813-0.873,4.877 c-0.195,1.998-0.212,4.426-0.052,7.218c0.161,2.814,0.663,6.054,1.49,9.628c0.823,3.549,2.112,7.556,3.83,11.911 c1.724,4.363,4.122,9.127,7.108,14.125c3.75,6.469,7.565,11.855,11.339,16.011c3.762,4.142,7.303,7.478,10.529,9.917 c3.323,2.513,6.171,4.262,8.703,5.35c2.458,1.058,4.251,1.728,5.477,2.046c0.564,0.147,1.03,0.245,1.388,0.302 c0.177,0.028,0.294,0.047,0.254,0.034l0.392,0.071C63.479,98.979,63.868,99,64.263,99c0.755,0,1.533-0.078,2.321-0.234 c1.252-0.247,2.369-0.681,3.321-1.294l14.125-8.224c1.985-1.165,3.182-2.963,3.463-5.197l0.018-0.196 C87.59,82.476,87.274,80.402,85.331,78.364"></path></svg>