<svg xmlns="http://www.w3.org/2000/svg" xmlns:xlink="http://www.w3.org/1999/xlink" x="0px" y="0px" viewBox="0 0 100 100" style="enable-background:new 0 0 100 100;" xml:space="preserve"><g>	<path d="M13.632,1c0.766,0,1.531,0,2.297,0c2.228,0.454,4.325,1.235,6.303,2.371C43.864,15.791,65.51,28.186,87.125,40.633  c1.529,0.881,2.995,1.973,4.249,3.212c3.516,3.471,3.747,8.036,0.488,11.725c-1.322,1.497-3.005,2.785-4.743,3.788  c-20.5,11.83-41.041,23.59-61.574,35.364c-3.058,1.754-6.03,3.709-9.617,4.278c-0.766,0-1.531,0-2.297,0  c-0.117-0.047-0.23-0.119-0.351-0.139c-2.679-0.439-4.594-1.923-5.873-4.279c-1.322-2.434-1.57-5.09-1.57-7.787  C5.832,62.233,5.832,37.671,5.84,13.109c0-0.955,0.037-1.917,0.148-2.865c0.321-2.718,1.148-5.218,3.211-7.168  C10.453,1.891,12.01,1.382,13.632,1z"></path></g></svg>