<svg xmlns="http://www.w3.org/2000/svg" xmlns:xlink="http://www.w3.org/1999/xlink" x="0px" y="0px" viewBox="0 0 100 100" style="enable-background:new 0 0 100 100;" xml:space="preserve"><path d="M96.49,83.943L75.535,62.987c4.141-6.525,6.274-14.054,6.274-21.583c0-10.415-3.89-20.705-11.795-28.61 C62.109,4.89,51.693,1,41.405,1C30.989,1,20.7,4.89,12.796,12.795C4.89,20.7,1.001,30.989,1.001,41.405 c0,10.289,3.889,20.704,11.795,28.61c7.905,7.905,18.194,11.795,28.609,11.795c7.528,0,15.057-2.133,21.582-6.274l20.955,20.955 C85.698,98.122,87.957,99,90.216,99c2.259,0,4.518-0.878,6.274-2.509c1.631-1.757,2.509-4.015,2.509-6.274 C98.999,87.958,98.121,85.7,96.49,83.943z M66.375,66.25v0.126h-0.125l-0.251,0.251c-6.901,6.65-15.685,10.038-24.594,10.038 c-9.035,0-18.069-3.388-24.971-10.289S6.145,50.439,6.145,41.405s3.388-18.069,10.289-24.971S32.37,6.145,41.405,6.145 c9.034,0,18.069,3.388,24.97,10.289c6.777,6.901,10.289,15.936,10.289,24.971c0,8.909-3.387,17.693-10.038,24.594L66.375,66.25z  M92.726,92.726c-0.628,0.753-1.631,1.129-2.51,1.129c-1.003,0-2.008-0.376-2.635-1.129L67.253,72.524 c0.753-0.628,1.38-1.255,2.133-1.882v-0.126h0.125v-0.126h0.126v-0.126h0.125l0.251-0.25l0.251-0.251v-0.125h0.125v-0.126h0.125 v-0.126h0.126c0.627-0.753,1.255-1.38,1.883-2.133l20.202,20.328c0.753,0.753,1.129,1.631,1.129,2.635 C93.855,91.095,93.478,92.099,92.726,92.726z"></path></svg>