<svg xmlns="http://www.w3.org/2000/svg" xmlns:xlink="http://www.w3.org/1999/xlink" x="0px" y="0px" viewBox="0 0 100 100" style="enable-background:new 0 0 100 100;" xml:space="preserve"><g>	<path d="M36.799,35.061V6.381C36.799,3.409,34.39,1,31.418,1h-6.824c-2.972,0-5.381,2.409-5.381,5.381v28.68  c0,1.578,1.279,2.857,2.856,2.856l11.873,0C35.521,37.917,36.799,36.638,36.799,35.061"></path>	<path d="M68.915,38.091c0.673-0.208,1.135-0.826,1.145-1.53l0.312-21.409c0.038-2.578-3.456-3.929-7.238-2.8l-4.496,1.342  c-3.765,1.124-5.948,4.15-4.534,6.286l11.788,17.82c0.399,0.603,1.147,0.87,1.837,0.656L68.915,38.091z"></path>	<path d="M74.782,53.616l-3.228-10.811c-0.259-0.867-1.175-1.356-2.039-1.088l-0.372,0.115c-0.852,0.264-1.332,1.164-1.077,2.019  l3.227,10.807c0.222,0.744,1.006,1.167,1.75,0.945l0.795-0.237C74.581,55.143,75.004,54.36,74.782,53.616"></path>	<path d="M93.082,90.126l-9.33-31.247c-0.405-1.355-1.831-2.126-3.186-1.721l-4.34,1.296l-3.489,1.042l-4.114,1.228  c-1.355,0.404-2.126,1.831-1.721,3.186l9.33,31.247c0.85,2.848,3.848,4.467,6.695,3.617l6.539-1.952  C92.313,95.971,93.932,92.973,93.082,90.126"></path>	<path d="M48.753,52.947c-0.375-6.4-5.668-11.395-12.08-11.395H19.348c-6.416,0-11.698,5.012-12.082,11.416  C6.171,71.242,6.868,85.177,7.493,92.713C7.788,96.271,10.76,99,14.331,99h27.334c3.579,0,6.541-2.752,6.842-6.318  C49.767,77.784,49.331,62.806,48.753,52.947 M37.432,78.079c0,2.484-2.014,4.498-4.498,4.498h-9.855  c-2.484,0-4.498-2.014-4.498-4.498V62.326c0-2.484,2.014-4.498,4.498-4.498h9.855c2.484,0,4.498,2.014,4.498,4.498V78.079z"></path></g></svg>