<svg xmlns="http://www.w3.org/2000/svg" xmlns:xlink="http://www.w3.org/1999/xlink" x="0px" y="0px" viewBox="0 0 100 100" style="enable-background:new 0 0 100 100;" xml:space="preserve"><g>	<path d="M35.924,84.439v9.398c0,2.478,1.893,4.552,4.361,4.772c7.713,0.687,14.979,0.334,19.405-0.037  c2.482-0.208,4.387-2.28,4.387-4.77v-9.346c0-1.903-1.595-3.411-3.496-3.318c-8.541,0.416-16.729,0.18-21.188-0.02  C37.499,81.032,35.924,82.544,35.924,84.439"></path>	<path d="M37.306,75.631c1.141,1.14,2.664,1.806,4.276,1.865c2.439,0.089,5.548,0.166,9.002,0.166c2.792,0,5.475-0.052,8.03-0.151  c1.611-0.063,3.135-0.726,4.275-1.866c1.039-1.039,1.687-2.404,1.836-3.866l6.31-62.038V5.314C71.035,2.931,69.103,1,66.721,1  H33.279c-2.383,0-4.314,1.932-4.314,4.314V9.74l6.287,61.807c0.149,1.461,0.797,2.827,1.836,3.865L37.306,75.631z M35.621,8.813  h28.758c0.512,0,0.927,0.415,0.927,0.927c0,0.512-0.415,0.927-0.927,0.927H35.621c-0.512,0-0.927-0.415-0.927-0.927  C34.694,9.228,35.109,8.813,35.621,8.813"></path></g></svg>