<svg xmlns="http://www.w3.org/2000/svg" xmlns:xlink="http://www.w3.org/1999/xlink" x="0px" y="0px" viewBox="0 0 100 100" style="enable-background:new 0 0 100 100;" xml:space="preserve"><g>	<path d="M65.987,95.782c0.419,4.29,6.705,4.29,7.124,0c1.337-13.691,1.437-29.351,1.392-36.847c-0.005-0.883-0.722-1.59-1.605-1.59  h-6.699c-0.883,0-1.599,0.707-1.604,1.59C64.55,66.432,64.65,82.091,65.987,95.782"></path>	<path d="M66.308,54.036h6.538c0.904,0,1.63-0.747,1.604-1.651l-0.635-21.718c-0.032-1.084-0.92-1.947-2.005-1.947h-4.513  c-1.086,0-1.975,0.865-2.005,1.951l-0.588,21.718C64.68,53.291,65.405,54.036,66.308,54.036"></path>	<path d="M75.729,11.669c0.211-1.497-1.138-2.743-2.613-2.415l-8.05,1.791c-1.181,0.263-1.95,1.404-1.75,2.597l1.775,10.594  c0.113,0.678,0.7,1.175,1.388,1.175h6.091c0.701,0,1.295-0.516,1.393-1.211L75.729,11.669z"></path>	<path d="M35.53,95.782c0.419,4.29,6.705,4.29,7.124,0c1.337-13.691,1.437-29.351,1.392-36.847c-0.005-0.883-0.722-1.59-1.605-1.59  h-6.699c-0.883,0-1.599,0.707-1.605,1.59C34.093,66.432,34.192,82.091,35.53,95.782"></path>	<path d="M34.835,30.671l-0.588,21.718c-0.024,0.903,0.701,1.648,1.604,1.648h6.537c0.905,0,1.63-0.747,1.604-1.651l-0.635-21.718  c-0.032-1.084-0.92-1.947-2.005-1.947H36.84C35.753,28.719,34.864,29.585,34.835,30.671"></path>	<path d="M52.81,13.203c1.65-2.233,1.517-5.327-0.35-7.382C50.295,3.439,46.315,1,39.092,1C31.826,1,27.854,3.48,25.71,5.888  c-1.831,2.056-1.947,5.12-0.312,7.335L33.28,23.9c0.702,0.95,1.813,1.511,2.994,1.511h5.637c1.181,0,2.291-0.56,2.993-1.51  L52.81,13.203z"></path></g></svg>