<svg xmlns="http://www.w3.org/2000/svg" xmlns:xlink="http://www.w3.org/1999/xlink" x="0px" y="0px" viewBox="0 0 100 100" style="enable-background:new 0 0 100 100;" xml:space="preserve"><g>	<path d="M43.186,31.807h13.628c0.222,0,0.442,0.005,0.661,0.014c1.134,0.046,2.069-0.872,2.069-2.007v-6.373  c0-2.066-1.675-3.742-3.742-3.742H44.197c-2.066,0-3.742,1.675-3.742,3.742v6.373c0,1.134,0.936,2.053,2.069,2.007  C42.744,31.812,42.964,31.807,43.186,31.807"></path>	<path d="M67.085,47.329c-0.171-5.991-2.156-10.926-7.541-12.138c-0.829-0.186-1.733-0.291-2.73-0.291H43.186  c-0.997,0-1.901,0.105-2.73,0.291c-5.385,1.213-7.37,6.147-7.541,12.138c-0.561,19.704-0.141,36.453,0.187,45.189  C33.237,96.138,36.446,99,40.358,99h19.284c3.912,0,7.121-2.862,7.257-6.483C67.227,83.781,67.646,67.033,67.085,47.329"></path>	<path d="M57.275,1H42.725c-0.854,0-1.546,0.692-1.546,1.546c0,0.854,0.692,1.546,1.546,1.546h14.549  c0.854,0,1.546-0.692,1.546-1.546C58.821,1.692,58.129,1,57.275,1"></path>	<path d="M42.192,10.421c-2.184,0.261-4.865,0.825-7.451,2.011c-0.665,0.306-1.067,1.047-0.899,1.76  c0.177,0.751,0.827,1.208,1.511,1.207c0.217,0,0.437-0.045,0.647-0.142c2.21-1.021,4.548-1.515,6.47-1.751  c0.404-0.05,0.697-0.407,0.676-0.814l-0.08-1.536C43.041,10.704,42.642,10.367,42.192,10.421"></path>	<path d="M47.434,7.184c-0.804,0-1.445,0.674-1.403,1.478l0.161,3.097l0.183,3.517c0.039,0.746,0.655,1.332,1.403,1.332h4.442  c0.747,0,1.364-0.585,1.403-1.332l0.345-6.614c0.042-0.803-0.598-1.478-1.403-1.478H47.434z"></path></g></svg>