<svg xmlns="http://www.w3.org/2000/svg" xmlns:xlink="http://www.w3.org/1999/xlink" x="0px" y="0px" viewBox="0 0 100 100" style="enable-background:new 0 0 100 100;" xml:space="preserve"><g>	<path d="M15.347,37.991c7.794-8.485,21.39-22.888,34.079-34.36C53.437,0.005,59.577,0.139,63.4,3.962l1.771,1.771  c1.576,1.576,1.39,3.998-0.094,5.662C57.851,19.5,39.471,39.299,22.932,53.424c-1.715,1.465-4.113,1.741-5.708,0.146l-1.575-1.575  C11.813,48.158,11.677,41.986,15.347,37.991"></path>	<path d="M80.707,70.658c-19.464,1.385-43.357,0.416-54.636-0.194c-3.524-0.191-6.481,2.615-6.481,6.145v15.109  c0,3.136,2.354,5.769,5.47,6.121c20.081,2.266,45.489,0.672,56.612-0.232c3.194-0.26,5.647-2.929,5.647-6.133V76.793  C87.319,73.213,84.278,70.404,80.707,70.658"></path>	<path d="M53.988,55.942c0.044,0,0.088,0,0.132,0c1.803,0,3.592-0.008,5.363-0.023c0.096-0.001,0.191-0.001,0.288-0.002  c1.787-0.015,3.558-0.039,5.307-0.069c0.028-0.001,0.056-0.001,0.083-0.002l8.46-0.227c0.749-0.02,1.099-0.931,0.555-1.446  c-1.511-1.429-3.814-3.893-5.614-7.073c-1.213-2.145-4.19-2.386-5.834-0.549c-2.52,2.817-6.569,6.083-12.72,7.959  c-0.779,0.238-0.596,1.395,0.218,1.402L53.988,55.942z"></path>	<path d="M80.707,63.918c0-2.699-2.245-4.854-4.942-4.755c-12.142,0.447-23.711,0.434-32.63,0.293  c-5.009-0.08-9.184-0.2-12.148-0.302c-2.692-0.093-4.915,2.064-4.915,4.758c0.111,1.69,1.465,3.028,3.156,3.111  c7.469,0.369,17.744,0.744,28.592,0.744c7.274,0,13.899-0.172,19.743-0.512c1.66-0.097,2.988-1.402,3.123-3.06L80.707,63.918z"></path></g></svg>