<svg xmlns="http://www.w3.org/2000/svg" xmlns:xlink="http://www.w3.org/1999/xlink" x="0px" y="0px" viewBox="0 0 100 100" style="enable-background:new 0 0 100 100;" xml:space="preserve"><style type="text/css">	.Tic-icon-svg{fill:currentcolor;}</style><path class="Tic-icon-svg" d="M98,4.7c-1.5-1.7-4-1.8-5.7-0.3C85.9,10.1,80,15.9,74.1,22c-5.8,6.1-11.5,12.3-16.9,18.8 c-8.1,9.5-15.8,19.5-23.1,29.9L8,42.5c-1.2-1.4-3.4-1.7-5-0.8c-1.9,1.1-2.6,3.6-1.5,5.5c0,0,25,43.1,26,44.9c1,1.8,3.3,4.5,8,4.5 c4.5,0,7-2.6,8.5-5.5c1.5-2.9,15.4-28.5,24.4-42c4.5-6.8,9.2-13.4,14.2-20c4.9-6.5,10.1-12.9,15.4-18.9l0.1-0.1 C99.3,8.6,99.4,6.3,98,4.7z"></path></svg>