<svg xmlns="http://www.w3.org/2000/svg" xmlns:xlink="http://www.w3.org/1999/xlink" x="0px" y="0px"
	 viewBox="0 0 250 96.1" style="enable-background:new 0 0 250 96.1;" xml:space="preserve">
<style type="text/css"> .st0{fill:#FFFFFF;} </style>
<path class="st0" d="M123.1,92.3l-0.2,0H99.5V32c-0.1-1.6,0.5-3.1,1.6-4.2H87.2c1,1.1,1.5,2.6,1.5,4.1v58.5
	c0.1,1.5-0.5,2.9-1.5,4h38.7l1.4-4.4C126.2,91.2,124.8,92,123.1,92.3"/>
<path class="st0" d="M63,94.3h13.9c-1-1.1-1.6-2.5-1.6-4v-0.1V31.7v-0.1c0.1-1.4,0.6-2.8,1.6-3.8H63
	c1,1.1,1.5,2.5,1.5,4v58.5C64.5,91.7,64,93.2,63,94.3"/>
<path class="st0" d="M176.6,90.2c0.4,1.3,0.2,2.6-0.6,3.7c-0.1,0.1-0.2,0.3-0.3,0.4h15.4c-1.4-0.9-2.5-2.2-3.1-3.8
	l-22.6-62.1c-0.5-1-1.4-1.8-2.6-2l-2.5,7.3l-20.6,56.3v0.1l-0.1,0.3c-0.6,1.6-1.7,2.9-3.1,3.8h6.2c-0.2-0.2-0.3-0.3-0.4-0.5
	c-0.8-1.4-0.9-3-0.2-4.5l5.7-15.9h22.6L176.6,90.2z M148.6,71.7l10.7-29l10.5,29H148.6z"/>
<path class="st0" d="M225.7,94.3h0.1c6.7,0.1,13.4-1.1,19.6-3.5l-1.9-5.4c-2.5,2.9-7.7,7.1-17.7,7.1h-0.1
	c-6.5,0.1-12.6-3-16.3-8.4c-4-5.6-6-13.7-6-24c0-10,2.2-18.3,6.4-24c3.6-5.2,9.5-8.3,15.9-8.3h0.1c9.7,0,15,4,17.7,7.2l2-5.4
	c-6.2-2.5-12.9-3.7-19.6-3.6h-0.1c-15.9,0-33,9-33,34.2C192.7,81.9,204.8,94.3,225.7,94.3"/>
<path class="st0" d="M18.6,1.7H4.5c1,1,1.6,2.4,1.6,3.9v85c0,1.4-0.5,2.7-1.5,3.7h46.6l1.4-4.4
	c-1.1,1.3-2.5,2.1-4.1,2.5l-0.1,0H17.1V6C17,4.4,17.6,2.9,18.6,1.7"/>
</svg>
